<svg width="25" height="20" viewBox="0 0 25 20" fill="none" xmlns="http://www.w3.org/2000/svg">
<path d="M3.07422 0.0498047H21.9258C22.7276 0.0506733 23.4965 0.369561 24.0635 0.936523C24.6304 1.50349 24.9493 2.27241 24.9502 3.07422V16.9258L24.9346 17.2246C24.8652 17.9166 24.5596 18.5674 24.0635 19.0635C23.4965 19.6304 22.7276 19.9493 21.9258 19.9502H3.07422L2.77539 19.9346C2.08338 19.8652 1.4326 19.5596 0.936523 19.0635C0.369561 18.4965 0.0506733 17.7276 0.0498047 16.9258V3.07422L0.0654297 2.77539C0.134815 2.08338 0.440446 1.4326 0.936523 0.936523C1.4326 0.440446 2.08338 0.134815 2.77539 0.0654297L3.07422 0.0498047ZM23.3066 5.65137L12.9238 12.3252C12.7974 12.4065 12.6503 12.4502 12.5 12.4502C12.3497 12.4502 12.2026 12.4065 12.0762 12.3252L1.69336 5.65137L1.61621 5.60156V16.9258C1.61667 17.3122 1.77072 17.6828 2.04395 17.9561C2.31717 18.2293 2.68782 18.3833 3.07422 18.3838H21.9258C22.3122 18.3833 22.6828 18.2293 22.9561 17.9561C23.2293 17.6828 23.3833 17.3122 23.3838 16.9258V5.60156L23.3066 5.65137ZM3.07422 1.61621C2.68782 1.61667 2.31717 1.77072 2.04395 2.04395C1.77072 2.31717 1.61667 2.68782 1.61621 3.07422V3.73926L1.63965 3.75391L12.4727 10.7178L12.5 10.7354L12.5273 10.7178L23.3604 3.75391L23.3838 3.73926V3.07422C23.3833 2.68782 23.2293 2.31717 22.9561 2.04395C22.6828 1.77072 22.3122 1.61667 21.9258 1.61621H3.07422Z" fill="#0160D6" stroke="white" stroke-width="0.1"/>
</svg>
