<svg width="198" height="42" viewBox="0 0 198 42" fill="none" xmlns="http://www.w3.org/2000/svg">
<path d="M82.5874 39.4899V22.7092C82.5874 20.3514 82.2011 18.7519 81.4146 17.9246C80.6282 17.0973 79.2761 16.6836 77.3721 16.6836C73.2055 16.6836 71.1083 19.0277 71.1083 23.702V37.2424V40.2897C71.1083 40.8274 70.7496 41.1859 70.2115 41.1859H67.4935H66.6657H63.9339C63.4096 41.1859 63.0371 40.8274 63.0371 40.2897V39.2693V14.6153V12.2437V11.5819C63.0371 11.0303 63.4096 10.6718 63.9339 10.6718H66.2932H67.4935H69.839C70.3771 10.6718 70.7358 11.0303 70.7358 11.5819V14.6153V15.1393C71.6878 13.4019 72.9571 12.092 74.53 11.1958C76.1028 10.3133 78.1172 9.87207 80.6006 9.87207C82.0493 9.87207 83.4014 10.0789 84.6431 10.5201C85.8849 10.9476 86.9472 11.6094 87.844 12.4643C88.727 13.333 89.4307 14.4085 89.9412 15.6633C90.4654 16.9318 90.7276 18.3796 90.7276 20.0342V37.2424V40.2897C90.7276 40.8274 90.3551 41.1859 89.8308 41.1859H87.0438H86.2712H83.4842C82.9599 41.1859 82.5874 40.8274 82.5874 40.2897V39.4899Z" fill="#2B2B2B"/>
<path d="M51.8754 39.6419V36.9118C49.8059 40.3038 46.6326 41.9998 42.3693 41.9998C40.8379 41.9998 39.4444 41.724 38.1888 41.1862C36.9195 40.6485 35.8296 39.8901 34.919 38.8973C34.0084 37.9046 33.3047 36.7187 32.7804 35.3537C32.27 34.0024 32.0078 32.4719 32.0078 30.7759V14.6157V12.6439V12.4233V11.5822C32.0078 11.0306 32.3665 10.6721 32.9046 10.6721H35.6226H36.4504H39.1822C39.7203 10.6721 40.079 11.0306 40.079 11.5822V14.6157V29.5349C40.079 33.3405 41.7898 35.2296 45.2253 35.2296C47.2948 35.2296 48.8539 34.5815 49.9162 33.2854C50.9648 31.9755 51.5029 30.3208 51.5029 28.2939V12.5612V11.5822C51.5029 11.0306 51.8616 10.6721 52.3859 10.6721H55.0625H55.9455H58.6083C59.1464 10.6721 59.5051 11.0306 59.5051 11.5822V14.6157V37.2427V40.29C59.5051 40.8277 59.1464 41.1862 58.6083 41.1862H56.318H55.0625H52.7584C52.2341 41.1862 51.8754 40.8277 51.8754 40.29V39.6419Z" fill="#2B2B2B"/>
<path d="M8.62309 23.9508V26.3362V37.2429V40.2902C8.62309 40.828 8.26437 41.1865 7.72629 41.1865H4.44262H4.18047H0.896801C0.358721 41.1865 0 40.828 0 40.2902V39.4905V1.86146V0.910046C0 0.372291 0.358721 0 0.896801 0H2.77319H4.44262H24.9035H26.9868H28.4631C28.9874 0 29.3599 0.372291 29.3599 0.910046V3.2541V3.94353V6.28759C29.3599 6.83913 28.9874 7.19763 28.4631 7.19763H26.9868H24.9035H8.62309V13.499V16.5601V16.6842H22.2959H23.6342H25.8555C26.3798 16.6842 26.7523 17.0565 26.7523 17.5942V20.0072V20.6415V23.0407C26.7523 23.5785 26.3798 23.9508 25.8555 23.9508H24.0343H22.2959H8.62309Z" fill="#2B2B2B"/>
<path d="M178.753 29.5765L178.739 37.8634V40.2902C178.739 40.828 178.38 41.1865 177.842 41.1865H175.055H174.296H171.509C170.971 41.1865 170.612 40.828 170.612 40.2902V38.084V37.2429V11.5548V3.94353V0.910046C170.612 0.358503 170.971 0 171.509 0H174.296H175.055H177.842C178.38 0 178.739 0.358503 178.739 0.910046V3.94353V11.4583C178.739 11.4859 178.739 11.5272 178.739 11.5548V17.415L178.753 22.2685L187.32 12.3821L188.259 11.2928C188.272 11.2791 188.272 11.2791 188.286 11.2653L188.3 11.2515C188.617 10.893 189.114 10.6586 189.597 10.6586H189.969C190.025 10.6586 190.08 10.6586 190.149 10.6586H196.868C196.909 10.6586 196.923 10.6586 196.923 10.6724H197.171C197.889 10.6724 198.041 11.3342 197.503 11.9409L197.461 11.9961L197.102 12.3821L184.989 26.3224L197.102 39.4629L197.461 39.849L197.503 39.9041C198.041 40.5108 197.889 41.1727 197.171 41.1727H197.02C196.978 41.1865 196.937 41.1865 196.868 41.1865H190.149C190.08 41.1865 190.025 41.1865 189.969 41.1865H189.597C189.114 41.1865 188.617 40.9521 188.3 40.5936L188.286 40.5798C188.272 40.566 188.272 40.566 188.259 40.5522L187.32 39.4629L178.753 29.5765Z" fill="#2B2B2B"/>
<path d="M158.941 37.2425V22.7093C158.941 20.3515 158.555 18.752 157.768 17.9247C156.982 17.0974 155.63 16.6837 153.726 16.6837C149.545 16.6837 147.462 19.0278 147.462 23.7021V39.5038V40.2898C147.462 40.8275 147.103 41.186 146.565 41.186H143.847H143.019H140.287C139.749 41.186 139.391 40.8275 139.391 40.2898V38.5524V37.2425V14.6155V12.3266V11.582C139.391 11.0304 139.749 10.6719 140.287 10.6719H142.647H143.847H146.193C146.731 10.6719 147.089 11.0304 147.089 11.582V12.3266V14.6155V15.1394C148.041 13.4021 149.297 12.0921 150.87 11.1959C152.443 10.3134 154.471 9.8584 156.954 9.8584C158.403 9.8584 159.755 10.079 160.997 10.5203C162.238 10.9477 163.301 11.5958 164.184 12.4644C165.081 13.3331 165.784 14.4086 166.295 15.6634C166.819 16.9319 167.081 18.3797 167.081 20.0344V39.1729V40.2898C167.081 40.8275 166.709 41.186 166.184 41.186H163.397H162.625H159.838C159.313 41.186 158.941 40.8275 158.941 40.2898V37.2425Z" fill="#2B2B2B"/>
<path d="M127.788 38.7746V37.2441V15.141L135.859 7.01953V37.2441V39.1469V40.2914C135.859 40.8291 135.487 41.1876 134.962 41.1876H132.231H131.403H128.685C128.147 41.1876 127.788 40.8291 127.788 40.2914V38.7746Z" fill="#2B2B2B"/>
<path d="M116.046 38.9251V37.4498C114.184 40.4695 111.286 42 107.478 42C105.533 42 103.753 41.6277 102.139 40.8831C100.525 40.1385 99.1449 39.063 97.9859 37.6566C96.827 36.2502 95.9164 34.5266 95.2541 32.5135C94.5919 30.4865 94.2607 28.1838 94.2607 25.6192C94.2607 23.3027 94.5367 21.193 95.1024 19.2626C95.6542 17.346 96.4821 15.6776 97.5582 14.2712C98.6206 12.8647 99.9451 11.7754 101.49 11.0171C103.049 10.2449 104.815 9.87262 106.802 9.87262C110.569 9.87262 113.59 11.4583 115.867 14.6435V3.94353V0.910046C115.867 0.372292 116.225 0 116.75 0H119.357H120.309H122.917C123.441 0 123.8 0.372292 123.8 0.910046V2.42679V39.132V40.2902C123.8 40.828 123.441 41.1865 122.917 41.1865H120.489H119.357H116.943C116.405 41.1865 116.046 40.828 116.046 40.2902V38.9251ZM109.341 35.4229C111.286 35.4229 112.914 34.6093 114.211 33.0098C115.522 31.3966 116.046 29.2869 116.046 26.6809C116.046 20.0624 113.921 16.7531 109.41 16.7531C104.774 16.7531 102.456 19.8969 102.456 26.1845C102.456 28.9146 103.091 31.1346 104.374 32.8444C105.657 34.568 107.313 35.4229 109.341 35.4229Z" fill="#2B2B2B"/>
<path fill-rule="evenodd" clip-rule="evenodd" d="M127.786 11.7211L135.857 3.59961H124.654L127.786 7.00539V11.7211Z" fill="url(#paint0_linear_3074_165)"/>
<defs>
<linearGradient id="paint0_linear_3074_165" x1="127.758" y1="9.12359" x2="132.262" y2="6.42606" gradientUnits="userSpaceOnUse">
<stop stop-color="#0160D6"/>
<stop offset="1" stop-color="#07CCB5"/>
</linearGradient>
</defs>
</svg>
