<svg width="23" height="23" viewBox="0 0 23 23" fill="none" xmlns="http://www.w3.org/2000/svg">
<g clip-path="url(#clip0_2969_1222)">
<path d="M11.5 0C5.14396 0 0 5.14337 0 11.5C0 17.856 5.14337 23 11.5 23C17.856 23 23 17.8566 23 11.5C23 5.14396 17.8566 0 11.5 0ZM11.5 21.3953C6.0437 21.3953 1.60465 16.9563 1.60465 11.5C1.60465 6.04365 6.0437 1.60465 11.5 1.60465C16.9563 1.60465 21.3953 6.04365 21.3953 11.5C21.3953 16.9563 16.9563 21.3953 11.5 21.3953Z" fill="#8FA1B3"/>
<path d="M11.1603 14.5517C10.5246 14.5517 10.0099 15.0815 10.0099 15.7172C10.0099 16.3379 10.5094 16.8829 11.1603 16.8829C11.8113 16.8829 12.3259 16.3379 12.3259 15.7172C12.3259 15.0815 11.7961 14.5517 11.1603 14.5517ZM11.3571 5.72656C9.31351 5.72656 8.375 6.93761 8.375 7.75501C8.375 8.34537 8.87453 8.61787 9.28323 8.61787C10.1007 8.61787 9.76767 7.45224 11.3117 7.45224C12.0685 7.45224 12.6741 7.78529 12.6741 8.48162C12.6741 9.29902 11.8263 9.76827 11.3268 10.1921C10.8878 10.5705 10.3126 11.1912 10.3126 12.493C10.3126 13.2801 10.5246 13.5072 11.1452 13.5072C11.8869 13.5072 12.0382 13.1742 12.0382 12.8865C12.0382 12.0994 12.0534 11.6453 12.886 10.9944C13.2947 10.6765 14.5813 9.64712 14.5813 8.22422C14.5813 6.80132 13.2947 5.72656 11.3571 5.72656Z" fill="#8FA1B3"/>
</g>
<defs>
<clipPath id="clip0_2969_1222">
<rect width="23" height="23" fill="white"/>
</clipPath>
</defs>
</svg>
