<svg width="23" height="23" viewBox="0 0 23 23" fill="none" xmlns="http://www.w3.org/2000/svg">
<path d="M11.4943 20.4303H5.10857C3.70371 20.4303 2.55428 19.281 2.55428 17.8765V5.10756C2.55428 3.70298 3.70371 2.55378 5.10857 2.55378H11.4943C12.1967 2.55378 12.7714 1.97918 12.7714 1.27689C12.7714 0.574601 12.1967 0 11.4943 0H5.10857C2.28608 0 0 2.28563 0 5.10756V17.8765C0 20.6984 2.28608 22.984 5.10857 22.984H11.4943C12.1967 22.984 12.7714 22.4094 12.7714 21.7071C12.7714 21.0049 12.1967 20.4303 11.4943 20.4303Z" fill="#8FA1B3"/>
<path d="M22.6133 10.5844L18.7819 6.75374C18.6637 6.63552 18.5233 6.54175 18.3688 6.47777C18.2143 6.41379 18.0487 6.38086 17.8815 6.38086C17.7143 6.38086 17.5487 6.41379 17.3942 6.47777C17.2398 6.54175 17.0994 6.63552 16.9811 6.75374C16.8629 6.87195 16.7691 7.0123 16.7051 7.16676C16.6411 7.32121 16.6082 7.48676 16.6082 7.65395C16.6082 7.82113 16.6411 7.98668 16.7051 8.14113C16.7691 8.29559 16.8629 8.43594 16.9811 8.55415L18.6287 10.2013H7.658C6.95557 10.2013 6.38086 10.7759 6.38086 11.4782C6.38086 12.1805 6.95557 12.7551 7.658 12.7551H18.6287L16.9811 14.4023C16.8029 14.5806 16.6817 14.8079 16.6329 15.0552C16.5842 15.3025 16.61 15.5588 16.7072 15.7914C16.8043 16.024 16.9685 16.2225 17.1787 16.3617C17.3889 16.5008 17.6358 16.5744 17.8879 16.573C18.22 16.573 18.5393 16.4453 18.7947 16.2027L22.6261 12.3721C22.7445 12.2539 22.8384 12.1136 22.9025 11.9591C22.9666 11.8047 22.9996 11.6391 22.9996 11.4718C22.9996 11.3046 22.9666 11.139 22.9025 10.9846C22.8384 10.8301 22.7445 10.6898 22.6261 10.5716L22.6133 10.5844Z" fill="#8FA1B3"/>
</svg>
