<svg width="19" height="20" viewBox="0 0 19 20" fill="none" xmlns="http://www.w3.org/2000/svg">
<path d="M15.693 7.85699C15.5036 7.85699 15.3219 7.78174 15.1879 7.64778C15.054 7.51382 14.9787 7.33214 14.9787 7.1427C14.9787 4.21909 12.7019 1.71978 9.79475 1.45264C6.88079 1.18442 4.17683 3.22373 3.6454 6.0959C3.58156 6.44117 3.54953 6.79157 3.54968 7.1427C3.54968 7.33214 3.47442 7.51382 3.34047 7.64778C3.20651 7.78174 3.02483 7.85699 2.83539 7.85699C2.64594 7.85699 2.46426 7.78174 2.33031 7.64778C2.19635 7.51382 2.12109 7.33214 2.12109 7.1427C2.12109 6.70305 2.16109 6.2634 2.24038 5.8359C2.90467 2.2455 6.27828 -0.306668 9.92582 0.029764C13.5605 0.364053 16.4073 3.48837 16.4073 7.1427C16.4073 7.33214 16.3321 7.51382 16.1981 7.64778C16.0642 7.78174 15.8825 7.85699 15.693 7.85699ZM15.693 16.4285C15.5036 16.4285 15.3219 16.3533 15.1879 16.2193C15.054 16.0853 14.9787 15.9037 14.9787 15.7142C14.9787 15.5248 15.054 15.3431 15.1879 15.2091C15.3219 15.0752 15.5036 14.9999 15.693 14.9999C16.3959 14.9999 16.8302 14.5188 17.002 14.0685C17.173 13.6206 17.1695 12.9749 16.6455 12.5063C16.5756 12.4438 16.5187 12.3681 16.4781 12.2836C16.4374 12.1991 16.4138 12.1074 16.4086 12.0138C16.4033 11.9201 16.4166 11.8264 16.4476 11.7379C16.4786 11.6494 16.5268 11.5678 16.5893 11.4979C16.6518 11.428 16.7275 11.3711 16.812 11.3304C16.8965 11.2898 16.9882 11.2662 17.0818 11.261C17.1755 11.2557 17.2692 11.269 17.3577 11.3C17.4462 11.331 17.5278 11.3792 17.5977 11.4417C18.4748 12.226 18.7648 13.4574 18.3363 14.5781C17.907 15.7021 16.8695 16.4285 15.693 16.4285Z" fill="#0160D6"/>
<path d="M15.6948 9.49508C15.5053 9.49508 15.3236 9.41982 15.1897 9.28587C15.0557 9.15191 14.9805 8.97023 14.9805 8.78078V7.14398C14.9805 6.95454 15.0557 6.77286 15.1897 6.6389C15.3236 6.50494 15.5053 6.42969 15.6948 6.42969C15.8842 6.42969 16.0659 6.50494 16.1998 6.6389C16.3338 6.77286 16.4091 6.95454 16.4091 7.14398V8.78078C16.4091 8.97023 16.3338 9.15191 16.1998 9.28587C16.0659 9.41982 15.8842 9.49508 15.6948 9.49508Z" fill="#0160D6"/>
<path d="M17.1248 12.6894C16.9492 12.6896 16.7798 12.6249 16.6491 12.5076C16.125 12.0384 15.7057 11.464 15.4185 10.8218C15.1313 10.1797 14.9827 9.48423 14.9823 8.78078C14.9823 8.59134 15.0575 8.40966 15.1915 8.2757C15.3254 8.14175 15.5071 8.06649 15.6966 8.06649C15.886 8.06649 16.0677 8.14175 16.2017 8.2757C16.3356 8.40966 16.4109 8.59134 16.4109 8.78078C16.4109 9.7958 16.8448 10.7662 17.6012 11.443C17.7092 11.5393 17.7853 11.6663 17.8194 11.8069C17.8536 11.9475 17.8442 12.0952 17.7926 12.2304C17.7409 12.3655 17.6494 12.4818 17.5301 12.5638C17.4109 12.6458 17.2695 12.6896 17.1248 12.6894ZM2.83929 9.49508C2.64985 9.49508 2.46817 9.41982 2.33421 9.28587C2.20026 9.15191 2.125 8.97023 2.125 8.78078V7.14398C2.125 6.95454 2.20026 6.77286 2.33421 6.6389C2.46817 6.50494 2.64985 6.42969 2.83929 6.42969C3.02874 6.42969 3.21042 6.50494 3.34437 6.6389C3.47833 6.77286 3.55359 6.95454 3.55359 7.14398V8.78078C3.55359 8.97023 3.47833 9.15191 3.34437 9.28587C3.21042 9.41982 3.02874 9.49508 2.83929 9.49508Z" fill="#0160D6"/>
<path d="M1.40996 12.6897C1.26525 12.6897 1.12394 12.6459 1.00473 12.5638C0.885511 12.4818 0.794021 12.3655 0.742368 12.2303C0.690715 12.0952 0.681336 11.9475 0.715471 11.8069C0.749607 11.6663 0.825648 11.5393 0.933526 11.4429C1.30785 11.1077 1.60733 10.6973 1.81243 10.2386C2.01754 9.77995 2.12366 9.28317 2.1239 8.7807C2.1239 8.59126 2.19915 8.40957 2.33311 8.27562C2.46706 8.14166 2.64875 8.06641 2.83819 8.06641C3.02763 8.06641 3.20931 8.14166 3.34327 8.27562C3.47723 8.40957 3.55248 8.59126 3.55248 8.7807C3.55248 10.2018 2.94498 11.56 1.88568 12.5075C1.74961 12.6297 1.5796 12.6897 1.40996 12.6897ZM9.26683 20.0012C6.94359 20.0012 4.98107 18.0387 4.98107 15.7154C4.98107 15.526 5.05632 15.3443 5.19028 15.2103C5.32424 15.0764 5.50592 15.0011 5.69536 15.0011C5.8848 15.0011 6.06649 15.0764 6.20044 15.2103C6.3344 15.3443 6.40966 15.526 6.40966 15.7154C6.40966 17.264 7.71788 18.5726 9.26683 18.5726C10.8158 18.5726 12.124 17.264 12.124 15.7154C12.124 15.526 12.1993 15.3443 12.3332 15.2103C12.4672 15.0764 12.6489 15.0011 12.8383 15.0011C13.0277 15.0011 13.2094 15.0764 13.3434 15.2103C13.4773 15.3443 13.5526 15.526 13.5526 15.7154C13.5526 18.0387 11.5901 20.0012 9.26683 20.0012Z" fill="#0160D6"/>
<path d="M2.83745 16.4293C1.66101 16.4293 0.624212 15.7047 0.195993 14.5832C-0.233297 13.4597 0.0559915 12.2268 0.932787 11.4429C1.00267 11.38 1.08426 11.3316 1.17288 11.3004C1.2615 11.2691 1.35542 11.2557 1.44925 11.2608C1.54307 11.2659 1.63497 11.2895 1.71967 11.3302C1.80436 11.3709 1.8802 11.4279 1.94283 11.498C2.00546 11.568 2.05365 11.6498 2.08464 11.7385C2.11564 11.8272 2.12882 11.9211 2.12344 12.0149C2.11807 12.1087 2.09423 12.2006 2.0533 12.2852C2.01238 12.3698 1.95516 12.4454 1.88494 12.5079C1.36136 12.9761 1.35851 13.624 1.53029 14.074C1.70137 14.5222 2.13494 15.0015 2.83745 15.0015C2.93121 15.0015 3.02404 15.0199 3.11066 15.0558C3.19728 15.0917 3.27598 15.1443 3.34228 15.2106C3.40857 15.2769 3.46116 15.3556 3.49704 15.4422C3.53292 15.5288 3.55139 15.6216 3.55139 15.7154C3.55139 15.8092 3.53292 15.902 3.49704 15.9886C3.46116 16.0752 3.40857 16.1539 3.34228 16.2202C3.27598 16.2865 3.19728 16.3391 3.11066 16.375C3.02404 16.4109 2.93121 16.4293 2.83745 16.4293Z" fill="#0160D6"/>
<path d="M15.6966 16.4286H2.83929C2.64985 16.4286 2.46817 16.3533 2.33421 16.2194C2.20026 16.0854 2.125 15.9037 2.125 15.7143C2.125 15.5249 2.20026 15.3432 2.33421 15.2092C2.46817 15.0753 2.64985 15 2.83929 15H15.6966C15.886 15 16.0677 15.0753 16.2017 15.2092C16.3356 15.3432 16.4109 15.5249 16.4109 15.7143C16.4109 15.9037 16.3356 16.0854 16.2017 16.2194C16.0677 16.3533 15.886 16.4286 15.6966 16.4286Z" fill="#0160D6"/>
</svg>
