<svg width="24" height="24" viewBox="0 0 24 24" fill="none" xmlns="http://www.w3.org/2000/svg">
<mask id="path-1-outside-1_2969_1217" maskUnits="userSpaceOnUse" x="-0.769531" y="-0.77002" width="25" height="25" fill="black">
<rect fill="white" x="-0.769531" y="-0.77002" width="25" height="25"/>
<path d="M20.9826 8.66331H20.8845C20.7406 8.66204 20.6005 8.61748 20.4824 8.53543C20.3642 8.45338 20.2735 8.33765 20.2221 8.20331C20.1679 8.0736 20.1536 7.9307 20.1809 7.79281C20.2082 7.65492 20.2759 7.52827 20.3754 7.42898L20.4452 7.35921C20.8657 6.93704 21.1019 6.36543 21.1019 5.76953C21.1019 5.17363 20.8657 4.60202 20.4452 4.17985L19.2867 3.02218C18.8649 2.6013 18.2933 2.36493 17.6974 2.36493C17.1015 2.36493 16.53 2.6013 16.1081 3.02218L16.0384 3.09195C15.9356 3.19093 15.8061 3.25776 15.6659 3.28423C15.5257 3.3107 15.3808 3.29566 15.249 3.24095C15.1172 3.18625 15.0042 3.09426 14.924 2.97627C14.8437 2.85828 14.7996 2.71943 14.7971 2.57675V2.47785C14.7965 1.88186 14.5595 1.31046 14.1381 0.889038C13.7167 0.467613 13.1453 0.230589 12.5493 0.22998H10.9117C10.3157 0.230589 9.74428 0.467613 9.32286 0.889038C8.90143 1.31046 8.66441 1.88186 8.6638 2.47785V2.57675C8.66007 2.7184 8.61535 2.85594 8.53505 2.9727C8.45476 3.08947 8.34235 3.18045 8.21141 3.23464C8.08048 3.28884 7.93664 3.30391 7.79732 3.27804C7.65799 3.25217 7.52915 3.18646 7.4264 3.08888L7.36047 3.01911C6.93863 2.59823 6.36706 2.36186 5.77117 2.36186C5.17527 2.36186 4.60371 2.59823 4.18187 3.01911L3.0196 4.17678C2.59905 4.59895 2.36292 5.17057 2.36292 5.76646C2.36292 6.36236 2.59905 6.93398 3.0196 7.35615L3.08937 7.42591C3.18984 7.52871 3.25709 7.65934 3.28238 7.80084C3.30768 7.94234 3.28984 8.08818 3.2312 8.21941C3.17859 8.35013 3.08819 8.46219 2.97156 8.54126C2.85494 8.62033 2.71738 8.66283 2.57647 8.66331H2.47834C1.88235 8.66392 1.31095 8.90095 0.889526 9.32237C0.468101 9.7438 0.231078 10.3152 0.230469 10.9112V12.5488C0.231078 13.1448 0.468101 13.7162 0.889526 14.1376C1.31095 14.559 1.88235 14.796 2.47834 14.7966H2.57647C2.72031 14.7979 2.86043 14.8425 2.97858 14.9245C3.09673 15.0066 3.18743 15.1223 3.23887 15.2566C3.29302 15.3864 3.30735 15.5293 3.28005 15.6671C3.25274 15.805 3.18503 15.9317 3.08554 16.031L3.01577 16.1007C2.59521 16.5229 2.35908 17.0945 2.35908 17.6904C2.35908 18.2863 2.59521 18.8579 3.01577 19.2801L4.17344 20.437C4.59521 20.8583 5.16697 21.095 5.76312 21.095C6.35926 21.095 6.93103 20.8583 7.3528 20.437L7.42257 20.3672C7.52542 20.2669 7.65604 20.1997 7.79752 20.1744C7.939 20.1491 8.08481 20.1669 8.21607 20.2254C8.34679 20.2778 8.45887 20.368 8.53796 20.4846C8.61705 20.6011 8.65954 20.7386 8.65997 20.8794V20.9783C8.65977 21.274 8.71787 21.5669 8.83096 21.8402C8.94405 22.1135 9.1099 22.3618 9.31903 22.5709C9.52816 22.7801 9.77646 22.9459 10.0497 23.059C10.323 23.1721 10.6159 23.2302 10.9117 23.23H12.5493C13.1453 23.2294 13.7167 22.9923 14.1381 22.5709C14.5595 22.1495 14.7965 21.5781 14.7971 20.9821V20.8832C14.8009 20.7416 14.8456 20.604 14.9259 20.4873C15.0062 20.3705 15.1186 20.2795 15.2495 20.2253C15.3805 20.1711 15.5243 20.1561 15.6636 20.1819C15.8029 20.2078 15.9318 20.2735 16.0345 20.3711L16.1043 20.4408C16.5261 20.8617 17.0977 21.0981 17.6936 21.0981C18.2895 21.0981 18.8611 20.8617 19.2829 20.4408L20.4413 19.2839C20.8619 18.8618 21.098 18.2902 21.098 17.6943C21.098 17.0984 20.8619 16.5267 20.4413 16.1046L20.3716 16.0348C20.2711 15.932 20.2038 15.8014 20.1786 15.6599C20.1533 15.5184 20.1711 15.3726 20.2297 15.2413C20.2822 15.1105 20.3726 14.9982 20.4892 14.919C20.6059 14.8398 20.7435 14.7972 20.8845 14.7966H20.9826C21.5786 14.796 22.15 14.559 22.5714 14.1376C22.9928 13.7162 23.2299 13.1448 23.2305 12.5488V10.9112C23.2299 10.3152 22.9928 9.7438 22.5714 9.32237C22.15 8.90095 21.5786 8.66392 20.9826 8.66331ZM21.6971 12.5488C21.6969 12.7382 21.6216 12.9198 21.4876 13.0538C21.3537 13.1878 21.172 13.2631 20.9826 13.2633H20.8845C20.4396 13.2671 20.0056 13.4018 19.6367 13.6505C19.2678 13.8992 18.9803 14.2511 18.81 14.6621C18.6398 15.0732 18.5942 15.5252 18.6791 15.962C18.764 16.3987 18.9756 16.8008 19.2875 17.1181L19.3565 17.1879C19.4904 17.3221 19.5655 17.5039 19.5655 17.6935C19.5655 17.8831 19.4904 18.0649 19.3565 18.1991L18.1981 19.356C18.0641 19.49 17.8823 19.5653 17.6928 19.5653C17.5033 19.5653 17.3216 19.49 17.1876 19.356L17.1186 19.2862C16.8012 18.9747 16.3991 18.7635 15.9625 18.6788C15.5259 18.5941 15.074 18.6397 14.6631 18.8099C14.2522 18.9801 13.9004 19.2674 13.6516 19.6361C13.4028 20.0048 13.2679 20.4385 13.2638 20.8832V20.9821C13.2636 21.1716 13.1883 21.3532 13.0543 21.4871C12.9203 21.6211 12.7387 21.6964 12.5493 21.6966H10.9117C10.7222 21.6964 10.5406 21.6211 10.4066 21.4871C10.2727 21.3532 10.1973 21.1716 10.1971 20.9821V20.8832C10.195 20.4376 10.0613 20.0025 9.81276 19.6326C9.56425 19.2626 9.21203 18.9743 8.80029 18.8038C8.38854 18.6333 7.93562 18.5882 7.49834 18.6742C7.06106 18.7602 6.6589 18.9733 6.34234 19.287L6.27257 19.3568C6.13837 19.4904 5.95671 19.5654 5.76734 19.5654C5.57796 19.5654 5.3963 19.4904 5.2621 19.3568L4.10444 18.1999C3.97059 18.0656 3.89542 17.8838 3.89542 17.6943C3.89542 17.5047 3.97059 17.3229 4.10444 17.1886L4.1742 17.1189C4.48638 16.8016 4.69821 16.3993 4.78323 15.9624C4.86826 15.5255 4.82273 15.0731 4.65232 14.6619C4.4819 14.2507 4.19416 13.8988 3.825 13.65C3.45583 13.4013 3.02159 13.2668 2.57647 13.2633H2.47834C2.28889 13.2631 2.10727 13.1878 1.97331 13.0538C1.83935 12.9198 1.764 12.7382 1.7638 12.5488V10.9112C1.764 10.7217 1.83935 10.5401 1.97331 10.4062C2.10727 10.2722 2.28889 10.1968 2.47834 10.1966H2.57647C3.02137 10.1929 3.45532 10.0582 3.82421 9.80946C4.1931 9.56071 4.48061 9.20889 4.65089 8.79784C4.82118 8.3868 4.86671 7.93473 4.7818 7.49799C4.6969 7.06124 4.48532 6.65915 4.17344 6.34185L4.10444 6.27208C3.97063 6.13798 3.89549 5.95628 3.89549 5.76685C3.89549 5.57741 3.97063 5.39571 4.10444 5.26161L5.2621 4.10318C5.3961 3.96919 5.57784 3.89392 5.76734 3.89392C5.95683 3.89392 6.13857 3.96919 6.27257 4.10318L6.34157 4.17295C6.65893 4.48468 7.06099 4.69615 7.49767 4.78103C7.93435 4.8659 8.38635 4.82042 8.79737 4.65026C9.20839 4.4801 9.56027 4.19277 9.80917 3.82407C10.0581 3.45536 10.193 3.02158 10.1971 2.57675V2.47785C10.1973 2.2884 10.2727 2.10678 10.4066 1.97282C10.5406 1.83886 10.7222 1.76352 10.9117 1.76331H12.5493C12.7387 1.76352 12.9203 1.83886 13.0543 1.97282C13.1883 2.10678 13.2636 2.2884 13.2638 2.47785V2.57675C13.2677 3.02158 13.4025 3.45543 13.6513 3.8242C13.9001 4.19297 14.2519 4.48037 14.663 4.65056C15.074 4.82075 15.526 4.86621 15.9627 4.78128C16.3993 4.69635 16.8013 4.48478 17.1186 4.17295L17.1884 4.10318C17.3224 3.96919 17.5041 3.89392 17.6936 3.89392C17.8831 3.89392 18.0648 3.96919 18.1988 4.10318L19.3565 5.26161C19.4903 5.39571 19.5654 5.57741 19.5654 5.76685C19.5654 5.95628 19.4903 6.13798 19.3565 6.27208L19.2867 6.34185C18.9748 6.6592 18.7632 7.06136 18.6783 7.49817C18.5935 7.93499 18.639 8.38712 18.8094 8.79819C18.9798 9.20926 19.2674 9.56108 19.6364 9.80977C20.0054 10.0585 20.4395 10.193 20.8845 10.1966H20.9826C21.172 10.1968 21.3537 10.2722 21.4876 10.4062C21.6216 10.5401 21.6969 10.7217 21.6971 10.9112V12.5488Z"/>
</mask>
<path d="M20.9826 8.66331H20.8845C20.7406 8.66204 20.6005 8.61748 20.4824 8.53543C20.3642 8.45338 20.2735 8.33765 20.2221 8.20331C20.1679 8.0736 20.1536 7.9307 20.1809 7.79281C20.2082 7.65492 20.2759 7.52827 20.3754 7.42898L20.4452 7.35921C20.8657 6.93704 21.1019 6.36543 21.1019 5.76953C21.1019 5.17363 20.8657 4.60202 20.4452 4.17985L19.2867 3.02218C18.8649 2.6013 18.2933 2.36493 17.6974 2.36493C17.1015 2.36493 16.53 2.6013 16.1081 3.02218L16.0384 3.09195C15.9356 3.19093 15.8061 3.25776 15.6659 3.28423C15.5257 3.3107 15.3808 3.29566 15.249 3.24095C15.1172 3.18625 15.0042 3.09426 14.924 2.97627C14.8437 2.85828 14.7996 2.71943 14.7971 2.57675V2.47785C14.7965 1.88186 14.5595 1.31046 14.1381 0.889038C13.7167 0.467613 13.1453 0.230589 12.5493 0.22998H10.9117C10.3157 0.230589 9.74428 0.467613 9.32286 0.889038C8.90143 1.31046 8.66441 1.88186 8.6638 2.47785V2.57675C8.66007 2.7184 8.61535 2.85594 8.53505 2.9727C8.45476 3.08947 8.34235 3.18045 8.21141 3.23464C8.08048 3.28884 7.93664 3.30391 7.79732 3.27804C7.65799 3.25217 7.52915 3.18646 7.4264 3.08888L7.36047 3.01911C6.93863 2.59823 6.36706 2.36186 5.77117 2.36186C5.17527 2.36186 4.60371 2.59823 4.18187 3.01911L3.0196 4.17678C2.59905 4.59895 2.36292 5.17057 2.36292 5.76646C2.36292 6.36236 2.59905 6.93398 3.0196 7.35615L3.08937 7.42591C3.18984 7.52871 3.25709 7.65934 3.28238 7.80084C3.30768 7.94234 3.28984 8.08818 3.2312 8.21941C3.17859 8.35013 3.08819 8.46219 2.97156 8.54126C2.85494 8.62033 2.71738 8.66283 2.57647 8.66331H2.47834C1.88235 8.66392 1.31095 8.90095 0.889526 9.32237C0.468101 9.7438 0.231078 10.3152 0.230469 10.9112V12.5488C0.231078 13.1448 0.468101 13.7162 0.889526 14.1376C1.31095 14.559 1.88235 14.796 2.47834 14.7966H2.57647C2.72031 14.7979 2.86043 14.8425 2.97858 14.9245C3.09673 15.0066 3.18743 15.1223 3.23887 15.2566C3.29302 15.3864 3.30735 15.5293 3.28005 15.6671C3.25274 15.805 3.18503 15.9317 3.08554 16.031L3.01577 16.1007C2.59521 16.5229 2.35908 17.0945 2.35908 17.6904C2.35908 18.2863 2.59521 18.8579 3.01577 19.2801L4.17344 20.437C4.59521 20.8583 5.16697 21.095 5.76312 21.095C6.35926 21.095 6.93103 20.8583 7.3528 20.437L7.42257 20.3672C7.52542 20.2669 7.65604 20.1997 7.79752 20.1744C7.939 20.1491 8.08481 20.1669 8.21607 20.2254C8.34679 20.2778 8.45887 20.368 8.53796 20.4846C8.61705 20.6011 8.65954 20.7386 8.65997 20.8794V20.9783C8.65977 21.274 8.71787 21.5669 8.83096 21.8402C8.94405 22.1135 9.1099 22.3618 9.31903 22.5709C9.52816 22.7801 9.77646 22.9459 10.0497 23.059C10.323 23.1721 10.6159 23.2302 10.9117 23.23H12.5493C13.1453 23.2294 13.7167 22.9923 14.1381 22.5709C14.5595 22.1495 14.7965 21.5781 14.7971 20.9821V20.8832C14.8009 20.7416 14.8456 20.604 14.9259 20.4873C15.0062 20.3705 15.1186 20.2795 15.2495 20.2253C15.3805 20.1711 15.5243 20.1561 15.6636 20.1819C15.8029 20.2078 15.9318 20.2735 16.0345 20.3711L16.1043 20.4408C16.5261 20.8617 17.0977 21.0981 17.6936 21.0981C18.2895 21.0981 18.8611 20.8617 19.2829 20.4408L20.4413 19.2839C20.8619 18.8618 21.098 18.2902 21.098 17.6943C21.098 17.0984 20.8619 16.5267 20.4413 16.1046L20.3716 16.0348C20.2711 15.932 20.2038 15.8014 20.1786 15.6599C20.1533 15.5184 20.1711 15.3726 20.2297 15.2413C20.2822 15.1105 20.3726 14.9982 20.4892 14.919C20.6059 14.8398 20.7435 14.7972 20.8845 14.7966H20.9826C21.5786 14.796 22.15 14.559 22.5714 14.1376C22.9928 13.7162 23.2299 13.1448 23.2305 12.5488V10.9112C23.2299 10.3152 22.9928 9.7438 22.5714 9.32237C22.15 8.90095 21.5786 8.66392 20.9826 8.66331ZM21.6971 12.5488C21.6969 12.7382 21.6216 12.9198 21.4876 13.0538C21.3537 13.1878 21.172 13.2631 20.9826 13.2633H20.8845C20.4396 13.2671 20.0056 13.4018 19.6367 13.6505C19.2678 13.8992 18.9803 14.2511 18.81 14.6621C18.6398 15.0732 18.5942 15.5252 18.6791 15.962C18.764 16.3987 18.9756 16.8008 19.2875 17.1181L19.3565 17.1879C19.4904 17.3221 19.5655 17.5039 19.5655 17.6935C19.5655 17.8831 19.4904 18.0649 19.3565 18.1991L18.1981 19.356C18.0641 19.49 17.8823 19.5653 17.6928 19.5653C17.5033 19.5653 17.3216 19.49 17.1876 19.356L17.1186 19.2862C16.8012 18.9747 16.3991 18.7635 15.9625 18.6788C15.5259 18.5941 15.074 18.6397 14.6631 18.8099C14.2522 18.9801 13.9004 19.2674 13.6516 19.6361C13.4028 20.0048 13.2679 20.4385 13.2638 20.8832V20.9821C13.2636 21.1716 13.1883 21.3532 13.0543 21.4871C12.9203 21.6211 12.7387 21.6964 12.5493 21.6966H10.9117C10.7222 21.6964 10.5406 21.6211 10.4066 21.4871C10.2727 21.3532 10.1973 21.1716 10.1971 20.9821V20.8832C10.195 20.4376 10.0613 20.0025 9.81276 19.6326C9.56425 19.2626 9.21203 18.9743 8.80029 18.8038C8.38854 18.6333 7.93562 18.5882 7.49834 18.6742C7.06106 18.7602 6.6589 18.9733 6.34234 19.287L6.27257 19.3568C6.13837 19.4904 5.95671 19.5654 5.76734 19.5654C5.57796 19.5654 5.3963 19.4904 5.2621 19.3568L4.10444 18.1999C3.97059 18.0656 3.89542 17.8838 3.89542 17.6943C3.89542 17.5047 3.97059 17.3229 4.10444 17.1886L4.1742 17.1189C4.48638 16.8016 4.69821 16.3993 4.78323 15.9624C4.86826 15.5255 4.82273 15.0731 4.65232 14.6619C4.4819 14.2507 4.19416 13.8988 3.825 13.65C3.45583 13.4013 3.02159 13.2668 2.57647 13.2633H2.47834C2.28889 13.2631 2.10727 13.1878 1.97331 13.0538C1.83935 12.9198 1.764 12.7382 1.7638 12.5488V10.9112C1.764 10.7217 1.83935 10.5401 1.97331 10.4062C2.10727 10.2722 2.28889 10.1968 2.47834 10.1966H2.57647C3.02137 10.1929 3.45532 10.0582 3.82421 9.80946C4.1931 9.56071 4.48061 9.20889 4.65089 8.79784C4.82118 8.3868 4.86671 7.93473 4.7818 7.49799C4.6969 7.06124 4.48532 6.65915 4.17344 6.34185L4.10444 6.27208C3.97063 6.13798 3.89549 5.95628 3.89549 5.76685C3.89549 5.57741 3.97063 5.39571 4.10444 5.26161L5.2621 4.10318C5.3961 3.96919 5.57784 3.89392 5.76734 3.89392C5.95683 3.89392 6.13857 3.96919 6.27257 4.10318L6.34157 4.17295C6.65893 4.48468 7.06099 4.69615 7.49767 4.78103C7.93435 4.8659 8.38635 4.82042 8.79737 4.65026C9.20839 4.4801 9.56027 4.19277 9.80917 3.82407C10.0581 3.45536 10.193 3.02158 10.1971 2.57675V2.47785C10.1973 2.2884 10.2727 2.10678 10.4066 1.97282C10.5406 1.83886 10.7222 1.76352 10.9117 1.76331H12.5493C12.7387 1.76352 12.9203 1.83886 13.0543 1.97282C13.1883 2.10678 13.2636 2.2884 13.2638 2.47785V2.57675C13.2677 3.02158 13.4025 3.45543 13.6513 3.8242C13.9001 4.19297 14.2519 4.48037 14.663 4.65056C15.074 4.82075 15.526 4.86621 15.9627 4.78128C16.3993 4.69635 16.8013 4.48478 17.1186 4.17295L17.1884 4.10318C17.3224 3.96919 17.5041 3.89392 17.6936 3.89392C17.8831 3.89392 18.0648 3.96919 18.1988 4.10318L19.3565 5.26161C19.4903 5.39571 19.5654 5.57741 19.5654 5.76685C19.5654 5.95628 19.4903 6.13798 19.3565 6.27208L19.2867 6.34185C18.9748 6.6592 18.7632 7.06136 18.6783 7.49817C18.5935 7.93499 18.639 8.38712 18.8094 8.79819C18.9798 9.20926 19.2674 9.56108 19.6364 9.80977C20.0054 10.0585 20.4395 10.193 20.8845 10.1966H20.9826C21.172 10.1968 21.3537 10.2722 21.4876 10.4062C21.6216 10.5401 21.6969 10.7217 21.6971 10.9112V12.5488Z" fill="#8FA1B3"/>
<path d="M20.9826 8.66331H20.8845C20.7406 8.66204 20.6005 8.61748 20.4824 8.53543C20.3642 8.45338 20.2735 8.33765 20.2221 8.20331C20.1679 8.0736 20.1536 7.9307 20.1809 7.79281C20.2082 7.65492 20.2759 7.52827 20.3754 7.42898L20.4452 7.35921C20.8657 6.93704 21.1019 6.36543 21.1019 5.76953C21.1019 5.17363 20.8657 4.60202 20.4452 4.17985L19.2867 3.02218C18.8649 2.6013 18.2933 2.36493 17.6974 2.36493C17.1015 2.36493 16.53 2.6013 16.1081 3.02218L16.0384 3.09195C15.9356 3.19093 15.8061 3.25776 15.6659 3.28423C15.5257 3.3107 15.3808 3.29566 15.249 3.24095C15.1172 3.18625 15.0042 3.09426 14.924 2.97627C14.8437 2.85828 14.7996 2.71943 14.7971 2.57675V2.47785C14.7965 1.88186 14.5595 1.31046 14.1381 0.889038C13.7167 0.467613 13.1453 0.230589 12.5493 0.22998H10.9117C10.3157 0.230589 9.74428 0.467613 9.32286 0.889038C8.90143 1.31046 8.66441 1.88186 8.6638 2.47785V2.57675C8.66007 2.7184 8.61535 2.85594 8.53505 2.9727C8.45476 3.08947 8.34235 3.18045 8.21141 3.23464C8.08048 3.28884 7.93664 3.30391 7.79732 3.27804C7.65799 3.25217 7.52915 3.18646 7.4264 3.08888L7.36047 3.01911C6.93863 2.59823 6.36706 2.36186 5.77117 2.36186C5.17527 2.36186 4.60371 2.59823 4.18187 3.01911L3.0196 4.17678C2.59905 4.59895 2.36292 5.17057 2.36292 5.76646C2.36292 6.36236 2.59905 6.93398 3.0196 7.35615L3.08937 7.42591C3.18984 7.52871 3.25709 7.65934 3.28238 7.80084C3.30768 7.94234 3.28984 8.08818 3.2312 8.21941C3.17859 8.35013 3.08819 8.46219 2.97156 8.54126C2.85494 8.62033 2.71738 8.66283 2.57647 8.66331H2.47834C1.88235 8.66392 1.31095 8.90095 0.889526 9.32237C0.468101 9.7438 0.231078 10.3152 0.230469 10.9112V12.5488C0.231078 13.1448 0.468101 13.7162 0.889526 14.1376C1.31095 14.559 1.88235 14.796 2.47834 14.7966H2.57647C2.72031 14.7979 2.86043 14.8425 2.97858 14.9245C3.09673 15.0066 3.18743 15.1223 3.23887 15.2566C3.29302 15.3864 3.30735 15.5293 3.28005 15.6671C3.25274 15.805 3.18503 15.9317 3.08554 16.031L3.01577 16.1007C2.59521 16.5229 2.35908 17.0945 2.35908 17.6904C2.35908 18.2863 2.59521 18.8579 3.01577 19.2801L4.17344 20.437C4.59521 20.8583 5.16697 21.095 5.76312 21.095C6.35926 21.095 6.93103 20.8583 7.3528 20.437L7.42257 20.3672C7.52542 20.2669 7.65604 20.1997 7.79752 20.1744C7.939 20.1491 8.08481 20.1669 8.21607 20.2254C8.34679 20.2778 8.45887 20.368 8.53796 20.4846C8.61705 20.6011 8.65954 20.7386 8.65997 20.8794V20.9783C8.65977 21.274 8.71787 21.5669 8.83096 21.8402C8.94405 22.1135 9.1099 22.3618 9.31903 22.5709C9.52816 22.7801 9.77646 22.9459 10.0497 23.059C10.323 23.1721 10.6159 23.2302 10.9117 23.23H12.5493C13.1453 23.2294 13.7167 22.9923 14.1381 22.5709C14.5595 22.1495 14.7965 21.5781 14.7971 20.9821V20.8832C14.8009 20.7416 14.8456 20.604 14.9259 20.4873C15.0062 20.3705 15.1186 20.2795 15.2495 20.2253C15.3805 20.1711 15.5243 20.1561 15.6636 20.1819C15.8029 20.2078 15.9318 20.2735 16.0345 20.3711L16.1043 20.4408C16.5261 20.8617 17.0977 21.0981 17.6936 21.0981C18.2895 21.0981 18.8611 20.8617 19.2829 20.4408L20.4413 19.2839C20.8619 18.8618 21.098 18.2902 21.098 17.6943C21.098 17.0984 20.8619 16.5267 20.4413 16.1046L20.3716 16.0348C20.2711 15.932 20.2038 15.8014 20.1786 15.6599C20.1533 15.5184 20.1711 15.3726 20.2297 15.2413C20.2822 15.1105 20.3726 14.9982 20.4892 14.919C20.6059 14.8398 20.7435 14.7972 20.8845 14.7966H20.9826C21.5786 14.796 22.15 14.559 22.5714 14.1376C22.9928 13.7162 23.2299 13.1448 23.2305 12.5488V10.9112C23.2299 10.3152 22.9928 9.7438 22.5714 9.32237C22.15 8.90095 21.5786 8.66392 20.9826 8.66331ZM21.6971 12.5488C21.6969 12.7382 21.6216 12.9198 21.4876 13.0538C21.3537 13.1878 21.172 13.2631 20.9826 13.2633H20.8845C20.4396 13.2671 20.0056 13.4018 19.6367 13.6505C19.2678 13.8992 18.9803 14.2511 18.81 14.6621C18.6398 15.0732 18.5942 15.5252 18.6791 15.962C18.764 16.3987 18.9756 16.8008 19.2875 17.1181L19.3565 17.1879C19.4904 17.3221 19.5655 17.5039 19.5655 17.6935C19.5655 17.8831 19.4904 18.0649 19.3565 18.1991L18.1981 19.356C18.0641 19.49 17.8823 19.5653 17.6928 19.5653C17.5033 19.5653 17.3216 19.49 17.1876 19.356L17.1186 19.2862C16.8012 18.9747 16.3991 18.7635 15.9625 18.6788C15.5259 18.5941 15.074 18.6397 14.6631 18.8099C14.2522 18.9801 13.9004 19.2674 13.6516 19.6361C13.4028 20.0048 13.2679 20.4385 13.2638 20.8832V20.9821C13.2636 21.1716 13.1883 21.3532 13.0543 21.4871C12.9203 21.6211 12.7387 21.6964 12.5493 21.6966H10.9117C10.7222 21.6964 10.5406 21.6211 10.4066 21.4871C10.2727 21.3532 10.1973 21.1716 10.1971 20.9821V20.8832C10.195 20.4376 10.0613 20.0025 9.81276 19.6326C9.56425 19.2626 9.21203 18.9743 8.80029 18.8038C8.38854 18.6333 7.93562 18.5882 7.49834 18.6742C7.06106 18.7602 6.6589 18.9733 6.34234 19.287L6.27257 19.3568C6.13837 19.4904 5.95671 19.5654 5.76734 19.5654C5.57796 19.5654 5.3963 19.4904 5.2621 19.3568L4.10444 18.1999C3.97059 18.0656 3.89542 17.8838 3.89542 17.6943C3.89542 17.5047 3.97059 17.3229 4.10444 17.1886L4.1742 17.1189C4.48638 16.8016 4.69821 16.3993 4.78323 15.9624C4.86826 15.5255 4.82273 15.0731 4.65232 14.6619C4.4819 14.2507 4.19416 13.8988 3.825 13.65C3.45583 13.4013 3.02159 13.2668 2.57647 13.2633H2.47834C2.28889 13.2631 2.10727 13.1878 1.97331 13.0538C1.83935 12.9198 1.764 12.7382 1.7638 12.5488V10.9112C1.764 10.7217 1.83935 10.5401 1.97331 10.4062C2.10727 10.2722 2.28889 10.1968 2.47834 10.1966H2.57647C3.02137 10.1929 3.45532 10.0582 3.82421 9.80946C4.1931 9.56071 4.48061 9.20889 4.65089 8.79784C4.82118 8.3868 4.86671 7.93473 4.7818 7.49799C4.6969 7.06124 4.48532 6.65915 4.17344 6.34185L4.10444 6.27208C3.97063 6.13798 3.89549 5.95628 3.89549 5.76685C3.89549 5.57741 3.97063 5.39571 4.10444 5.26161L5.2621 4.10318C5.3961 3.96919 5.57784 3.89392 5.76734 3.89392C5.95683 3.89392 6.13857 3.96919 6.27257 4.10318L6.34157 4.17295C6.65893 4.48468 7.06099 4.69615 7.49767 4.78103C7.93435 4.8659 8.38635 4.82042 8.79737 4.65026C9.20839 4.4801 9.56027 4.19277 9.80917 3.82407C10.0581 3.45536 10.193 3.02158 10.1971 2.57675V2.47785C10.1973 2.2884 10.2727 2.10678 10.4066 1.97282C10.5406 1.83886 10.7222 1.76352 10.9117 1.76331H12.5493C12.7387 1.76352 12.9203 1.83886 13.0543 1.97282C13.1883 2.10678 13.2636 2.2884 13.2638 2.47785V2.57675C13.2677 3.02158 13.4025 3.45543 13.6513 3.8242C13.9001 4.19297 14.2519 4.48037 14.663 4.65056C15.074 4.82075 15.526 4.86621 15.9627 4.78128C16.3993 4.69635 16.8013 4.48478 17.1186 4.17295L17.1884 4.10318C17.3224 3.96919 17.5041 3.89392 17.6936 3.89392C17.8831 3.89392 18.0648 3.96919 18.1988 4.10318L19.3565 5.26161C19.4903 5.39571 19.5654 5.57741 19.5654 5.76685C19.5654 5.95628 19.4903 6.13798 19.3565 6.27208L19.2867 6.34185C18.9748 6.6592 18.7632 7.06136 18.6783 7.49817C18.5935 7.93499 18.639 8.38712 18.8094 8.79819C18.9798 9.20926 19.2674 9.56108 19.6364 9.80977C20.0054 10.0585 20.4395 10.193 20.8845 10.1966H20.9826C21.172 10.1968 21.3537 10.2722 21.4876 10.4062C21.6216 10.5401 21.6969 10.7217 21.6971 10.9112V12.5488Z" stroke="#8FA1B3" stroke-width="0.46" mask="url(#path-1-outside-1_2969_1217)"/>
<path d="M11.7305 6.25146C13.1836 6.25323 14.577 6.83135 15.6045 7.85889C16.632 8.88644 17.2102 10.2798 17.2119 11.7329C17.2119 12.817 16.8904 13.8774 16.2881 14.7788C15.6859 15.6801 14.8295 16.3824 13.8281 16.7974C12.8265 17.2123 11.7235 17.3214 10.6602 17.1099C9.59696 16.8983 8.62006 16.3764 7.85352 15.6099C7.08699 14.8433 6.56508 13.8664 6.35352 12.8032C6.142 11.7399 6.25112 10.6369 6.66602 9.63525C7.08094 8.63382 7.78326 7.77753 8.68457 7.17529C9.58587 6.57311 10.6455 6.25156 11.7295 6.25146H11.7305ZM13.1533 8.29834C12.474 8.01695 11.7261 7.94304 11.0049 8.08643C10.2836 8.2299 9.6206 8.58399 9.10059 9.104C8.58057 9.62402 8.22648 10.287 8.08301 11.0083C7.93963 11.7295 8.01353 12.4774 8.29492 13.1567C8.57634 13.8359 9.05283 14.4162 9.66406 14.8247C10.2754 15.2332 10.9942 15.4516 11.7295 15.4517C12.7153 15.4505 13.6603 15.0579 14.3574 14.3608C15.0545 13.6637 15.4471 12.7187 15.4482 11.7329C15.4482 10.9977 15.2298 10.2788 14.8213 9.66748C14.4128 9.05625 13.8325 8.57976 13.1533 8.29834Z" fill="#8FA1B3" stroke="#8FA1B3" stroke-width="0.23"/>
</svg>
